<?xml version="1.0" encoding="utf-8" standalone="no"?>
<!DOCTYPE svg PUBLIC "-//W3C//DTD SVG 1.1//EN"
  "http://www.w3.org/Graphics/SVG/1.1/DTD/svg11.dtd">
<svg xmlns:xlink="http://www.w3.org/1999/xlink" width="864pt" height="360pt" viewBox="0 0 864 360" xmlns="http://www.w3.org/2000/svg" version="1.1">
 <metadata>
  <rdf:RDF xmlns:dc="http://purl.org/dc/elements/1.1/" xmlns:cc="http://creativecommons.org/ns#" xmlns:rdf="http://www.w3.org/1999/02/22-rdf-syntax-ns#">
   <cc:Work>
    <dc:type rdf:resource="http://purl.org/dc/dcmitype/StillImage"/>
    <dc:date>2025-06-25T08:16:13.681566</dc:date>
    <dc:format>image/svg+xml</dc:format>
    <dc:creator>
     <cc:Agent>
      <dc:title>Matplotlib v3.10.3, https://matplotlib.org/</dc:title>
     </cc:Agent>
    </dc:creator>
   </cc:Work>
  </rdf:RDF>
 </metadata>
 <defs>
  <style type="text/css">*{stroke-linejoin: round; stroke-linecap: butt}</style>
 </defs>
 <g id="figure_1">
  <g id="patch_1">
   <path d="M 0 360 
L 864 360 
L 864 0 
L 0 0 
L 0 360 
z
" style="fill: none; opacity: 0"/>
  </g>
  <g id="axes_1">
   <g id="patch_2">
    <path d="M 108 320.4 
L 777.6 320.4 
L 777.6 43.2 
L 108 43.2 
L 108 320.4 
z
" style="fill: none; opacity: 0"/>
   </g>
   <g id="matplotlib.axis_1">
    <g id="xtick_1">
     <g id="line2d_1">
      <path d="M 128.659319 320.4 
L 128.659319 43.2 
" clip-path="url(#pff26369b7a)" style="fill: none; stroke-dasharray: 5.12,1.28,0.8,1.28; stroke-dashoffset: 0; stroke: #b0b0b0; stroke-width: 0.8"/>
     </g>
     <g id="line2d_2">
      <defs>
       <path id="mc54302d454" d="M 0 0 
L 0 3.5 
" style="stroke: #a9a9a9; stroke-width: 0.8"/>
      </defs>
      <g>
       <use xlink:href="#mc54302d454" x="128.659319" y="320.4" style="fill: #a9a9a9; stroke: #a9a9a9; stroke-width: 0.8"/>
      </g>
     </g>
     <g id="text_1">
      <!-- 2021-07 -->
      <g style="fill: #a9a9a9" transform="translate(107.767913 334.998438) scale(0.1 -0.1)">
       <defs>
        <path id="DejaVuSans-32" d="M 1228 531 
L 3431 531 
L 3431 0 
L 469 0 
L 469 531 
Q 828 903 1448 1529 
Q 2069 2156 2228 2338 
Q 2531 2678 2651 2914 
Q 2772 3150 2772 3378 
Q 2772 3750 2511 3984 
Q 2250 4219 1831 4219 
Q 1534 4219 1204 4116 
Q 875 4013 500 3803 
L 500 4441 
Q 881 4594 1212 4672 
Q 1544 4750 1819 4750 
Q 2544 4750 2975 4387 
Q 3406 4025 3406 3419 
Q 3406 3131 3298 2873 
Q 3191 2616 2906 2266 
Q 2828 2175 2409 1742 
Q 1991 1309 1228 531 
z
" transform="scale(0.015625)"/>
        <path id="DejaVuSans-30" d="M 2034 4250 
Q 1547 4250 1301 3770 
Q 1056 3291 1056 2328 
Q 1056 1369 1301 889 
Q 1547 409 2034 409 
Q 2525 409 2770 889 
Q 3016 1369 3016 2328 
Q 3016 3291 2770 3770 
Q 2525 4250 2034 4250 
z
M 2034 4750 
Q 2819 4750 3233 4129 
Q 3647 3509 3647 2328 
Q 3647 1150 3233 529 
Q 2819 -91 2034 -91 
Q 1250 -91 836 529 
Q 422 1150 422 2328 
Q 422 3509 836 4129 
Q 1250 4750 2034 4750 
z
" transform="scale(0.015625)"/>
        <path id="DejaVuSans-31" d="M 794 531 
L 1825 531 
L 1825 4091 
L 703 3866 
L 703 4441 
L 1819 4666 
L 2450 4666 
L 2450 531 
L 3481 531 
L 3481 0 
L 794 0 
L 794 531 
z
" transform="scale(0.015625)"/>
        <path id="DejaVuSans-2d" d="M 313 2009 
L 1997 2009 
L 1997 1497 
L 313 1497 
L 313 2009 
z
" transform="scale(0.015625)"/>
        <path id="DejaVuSans-37" d="M 525 4666 
L 3525 4666 
L 3525 4397 
L 1831 0 
L 1172 0 
L 2766 4134 
L 525 4134 
L 525 4666 
z
" transform="scale(0.015625)"/>
       </defs>
       <use xlink:href="#DejaVuSans-32"/>
       <use xlink:href="#DejaVuSans-30" transform="translate(63.623047 0)"/>
       <use xlink:href="#DejaVuSans-32" transform="translate(127.246094 0)"/>
       <use xlink:href="#DejaVuSans-31" transform="translate(190.869141 0)"/>
       <use xlink:href="#DejaVuSans-2d" transform="translate(254.492188 0)"/>
       <use xlink:href="#DejaVuSans-30" transform="translate(290.576172 0)"/>
       <use xlink:href="#DejaVuSans-37" transform="translate(354.199219 0)"/>
      </g>
     </g>
    </g>
    <g id="xtick_2">
     <g id="line2d_3">
      <path d="M 206.875673 320.4 
L 206.875673 43.2 
" clip-path="url(#pff26369b7a)" style="fill: none; stroke-dasharray: 5.12,1.28,0.8,1.28; stroke-dashoffset: 0; stroke: #b0b0b0; stroke-width: 0.8"/>
     </g>
     <g id="line2d_4">
      <g>
       <use xlink:href="#mc54302d454" x="206.875673" y="320.4" style="fill: #a9a9a9; stroke: #a9a9a9; stroke-width: 0.8"/>
      </g>
     </g>
     <g id="text_2">
      <!-- 2022-01 -->
      <g style="fill: #a9a9a9" transform="translate(185.984267 334.998438) scale(0.1 -0.1)">
       <use xlink:href="#DejaVuSans-32"/>
       <use xlink:href="#DejaVuSans-30" transform="translate(63.623047 0)"/>
       <use xlink:href="#DejaVuSans-32" transform="translate(127.246094 0)"/>
       <use xlink:href="#DejaVuSans-32" transform="translate(190.869141 0)"/>
       <use xlink:href="#DejaVuSans-2d" transform="translate(254.492188 0)"/>
       <use xlink:href="#DejaVuSans-30" transform="translate(290.576172 0)"/>
       <use xlink:href="#DejaVuSans-31" transform="translate(354.199219 0)"/>
      </g>
     </g>
    </g>
    <g id="xtick_3">
     <g id="line2d_5">
      <path d="M 283.81676 320.4 
L 283.81676 43.2 
" clip-path="url(#pff26369b7a)" style="fill: none; stroke-dasharray: 5.12,1.28,0.8,1.28; stroke-dashoffset: 0; stroke: #b0b0b0; stroke-width: 0.8"/>
     </g>
     <g id="line2d_6">
      <g>
       <use xlink:href="#mc54302d454" x="283.81676" y="320.4" style="fill: #a9a9a9; stroke: #a9a9a9; stroke-width: 0.8"/>
      </g>
     </g>
     <g id="text_3">
      <!-- 2022-07 -->
      <g style="fill: #a9a9a9" transform="translate(262.925354 334.998438) scale(0.1 -0.1)">
       <use xlink:href="#DejaVuSans-32"/>
       <use xlink:href="#DejaVuSans-30" transform="translate(63.623047 0)"/>
       <use xlink:href="#DejaVuSans-32" transform="translate(127.246094 0)"/>
       <use xlink:href="#DejaVuSans-32" transform="translate(190.869141 0)"/>
       <use xlink:href="#DejaVuSans-2d" transform="translate(254.492188 0)"/>
       <use xlink:href="#DejaVuSans-30" transform="translate(290.576172 0)"/>
       <use xlink:href="#DejaVuSans-37" transform="translate(354.199219 0)"/>
      </g>
     </g>
    </g>
    <g id="xtick_4">
     <g id="line2d_7">
      <path d="M 362.033113 320.4 
L 362.033113 43.2 
" clip-path="url(#pff26369b7a)" style="fill: none; stroke-dasharray: 5.12,1.28,0.8,1.28; stroke-dashoffset: 0; stroke: #b0b0b0; stroke-width: 0.8"/>
     </g>
     <g id="line2d_8">
      <g>
       <use xlink:href="#mc54302d454" x="362.033113" y="320.4" style="fill: #a9a9a9; stroke: #a9a9a9; stroke-width: 0.8"/>
      </g>
     </g>
     <g id="text_4">
      <!-- 2023-01 -->
      <g style="fill: #a9a9a9" transform="translate(341.141707 334.998438) scale(0.1 -0.1)">
       <defs>
        <path id="DejaVuSans-33" d="M 2597 2516 
Q 3050 2419 3304 2112 
Q 3559 1806 3559 1356 
Q 3559 666 3084 287 
Q 2609 -91 1734 -91 
Q 1441 -91 1130 -33 
Q 819 25 488 141 
L 488 750 
Q 750 597 1062 519 
Q 1375 441 1716 441 
Q 2309 441 2620 675 
Q 2931 909 2931 1356 
Q 2931 1769 2642 2001 
Q 2353 2234 1838 2234 
L 1294 2234 
L 1294 2753 
L 1863 2753 
Q 2328 2753 2575 2939 
Q 2822 3125 2822 3475 
Q 2822 3834 2567 4026 
Q 2313 4219 1838 4219 
Q 1578 4219 1281 4162 
Q 984 4106 628 3988 
L 628 4550 
Q 988 4650 1302 4700 
Q 1616 4750 1894 4750 
Q 2613 4750 3031 4423 
Q 3450 4097 3450 3541 
Q 3450 3153 3228 2886 
Q 3006 2619 2597 2516 
z
" transform="scale(0.015625)"/>
       </defs>
       <use xlink:href="#DejaVuSans-32"/>
       <use xlink:href="#DejaVuSans-30" transform="translate(63.623047 0)"/>
       <use xlink:href="#DejaVuSans-32" transform="translate(127.246094 0)"/>
       <use xlink:href="#DejaVuSans-33" transform="translate(190.869141 0)"/>
       <use xlink:href="#DejaVuSans-2d" transform="translate(254.492188 0)"/>
       <use xlink:href="#DejaVuSans-30" transform="translate(290.576172 0)"/>
       <use xlink:href="#DejaVuSans-31" transform="translate(354.199219 0)"/>
      </g>
     </g>
    </g>
    <g id="xtick_5">
     <g id="line2d_9">
      <path d="M 438.9742 320.4 
L 438.9742 43.2 
" clip-path="url(#pff26369b7a)" style="fill: none; stroke-dasharray: 5.12,1.28,0.8,1.28; stroke-dashoffset: 0; stroke: #b0b0b0; stroke-width: 0.8"/>
     </g>
     <g id="line2d_10">
      <g>
       <use xlink:href="#mc54302d454" x="438.9742" y="320.4" style="fill: #a9a9a9; stroke: #a9a9a9; stroke-width: 0.8"/>
      </g>
     </g>
     <g id="text_5">
      <!-- 2023-07 -->
      <g style="fill: #a9a9a9" transform="translate(418.082794 334.998438) scale(0.1 -0.1)">
       <use xlink:href="#DejaVuSans-32"/>
       <use xlink:href="#DejaVuSans-30" transform="translate(63.623047 0)"/>
       <use xlink:href="#DejaVuSans-32" transform="translate(127.246094 0)"/>
       <use xlink:href="#DejaVuSans-33" transform="translate(190.869141 0)"/>
       <use xlink:href="#DejaVuSans-2d" transform="translate(254.492188 0)"/>
       <use xlink:href="#DejaVuSans-30" transform="translate(290.576172 0)"/>
       <use xlink:href="#DejaVuSans-37" transform="translate(354.199219 0)"/>
      </g>
     </g>
    </g>
    <g id="xtick_6">
     <g id="line2d_11">
      <path d="M 517.190554 320.4 
L 517.190554 43.2 
" clip-path="url(#pff26369b7a)" style="fill: none; stroke-dasharray: 5.12,1.28,0.8,1.28; stroke-dashoffset: 0; stroke: #b0b0b0; stroke-width: 0.8"/>
     </g>
     <g id="line2d_12">
      <g>
       <use xlink:href="#mc54302d454" x="517.190554" y="320.4" style="fill: #a9a9a9; stroke: #a9a9a9; stroke-width: 0.8"/>
      </g>
     </g>
     <g id="text_6">
      <!-- 2024-01 -->
      <g style="fill: #a9a9a9" transform="translate(496.299147 334.998438) scale(0.1 -0.1)">
       <defs>
        <path id="DejaVuSans-34" d="M 2419 4116 
L 825 1625 
L 2419 1625 
L 2419 4116 
z
M 2253 4666 
L 3047 4666 
L 3047 1625 
L 3713 1625 
L 3713 1100 
L 3047 1100 
L 3047 0 
L 2419 0 
L 2419 1100 
L 313 1100 
L 313 1709 
L 2253 4666 
z
" transform="scale(0.015625)"/>
       </defs>
       <use xlink:href="#DejaVuSans-32"/>
       <use xlink:href="#DejaVuSans-30" transform="translate(63.623047 0)"/>
       <use xlink:href="#DejaVuSans-32" transform="translate(127.246094 0)"/>
       <use xlink:href="#DejaVuSans-34" transform="translate(190.869141 0)"/>
       <use xlink:href="#DejaVuSans-2d" transform="translate(254.492188 0)"/>
       <use xlink:href="#DejaVuSans-30" transform="translate(290.576172 0)"/>
       <use xlink:href="#DejaVuSans-31" transform="translate(354.199219 0)"/>
      </g>
     </g>
    </g>
    <g id="xtick_7">
     <g id="line2d_13">
      <path d="M 594.556729 320.4 
L 594.556729 43.2 
" clip-path="url(#pff26369b7a)" style="fill: none; stroke-dasharray: 5.12,1.28,0.8,1.28; stroke-dashoffset: 0; stroke: #b0b0b0; stroke-width: 0.8"/>
     </g>
     <g id="line2d_14">
      <g>
       <use xlink:href="#mc54302d454" x="594.556729" y="320.4" style="fill: #a9a9a9; stroke: #a9a9a9; stroke-width: 0.8"/>
      </g>
     </g>
     <g id="text_7">
      <!-- 2024-07 -->
      <g style="fill: #a9a9a9" transform="translate(573.665323 334.998438) scale(0.1 -0.1)">
       <use xlink:href="#DejaVuSans-32"/>
       <use xlink:href="#DejaVuSans-30" transform="translate(63.623047 0)"/>
       <use xlink:href="#DejaVuSans-32" transform="translate(127.246094 0)"/>
       <use xlink:href="#DejaVuSans-34" transform="translate(190.869141 0)"/>
       <use xlink:href="#DejaVuSans-2d" transform="translate(254.492188 0)"/>
       <use xlink:href="#DejaVuSans-30" transform="translate(290.576172 0)"/>
       <use xlink:href="#DejaVuSans-37" transform="translate(354.199219 0)"/>
      </g>
     </g>
    </g>
    <g id="xtick_8">
     <g id="line2d_15">
      <path d="M 672.773083 320.4 
L 672.773083 43.2 
" clip-path="url(#pff26369b7a)" style="fill: none; stroke-dasharray: 5.12,1.28,0.8,1.28; stroke-dashoffset: 0; stroke: #b0b0b0; stroke-width: 0.8"/>
     </g>
     <g id="line2d_16">
      <g>
       <use xlink:href="#mc54302d454" x="672.773083" y="320.4" style="fill: #a9a9a9; stroke: #a9a9a9; stroke-width: 0.8"/>
      </g>
     </g>
     <g id="text_8">
      <!-- 2025-01 -->
      <g style="fill: #a9a9a9" transform="translate(651.881677 334.998438) scale(0.1 -0.1)">
       <defs>
        <path id="DejaVuSans-35" d="M 691 4666 
L 3169 4666 
L 3169 4134 
L 1269 4134 
L 1269 2991 
Q 1406 3038 1543 3061 
Q 1681 3084 1819 3084 
Q 2600 3084 3056 2656 
Q 3513 2228 3513 1497 
Q 3513 744 3044 326 
Q 2575 -91 1722 -91 
Q 1428 -91 1123 -41 
Q 819 9 494 109 
L 494 744 
Q 775 591 1075 516 
Q 1375 441 1709 441 
Q 2250 441 2565 725 
Q 2881 1009 2881 1497 
Q 2881 1984 2565 2268 
Q 2250 2553 1709 2553 
Q 1456 2553 1204 2497 
Q 953 2441 691 2322 
L 691 4666 
z
" transform="scale(0.015625)"/>
       </defs>
       <use xlink:href="#DejaVuSans-32"/>
       <use xlink:href="#DejaVuSans-30" transform="translate(63.623047 0)"/>
       <use xlink:href="#DejaVuSans-32" transform="translate(127.246094 0)"/>
       <use xlink:href="#DejaVuSans-35" transform="translate(190.869141 0)"/>
       <use xlink:href="#DejaVuSans-2d" transform="translate(254.492188 0)"/>
       <use xlink:href="#DejaVuSans-30" transform="translate(290.576172 0)"/>
       <use xlink:href="#DejaVuSans-31" transform="translate(354.199219 0)"/>
      </g>
     </g>
    </g>
    <g id="xtick_9">
     <g id="line2d_17">
      <path d="M 749.71417 320.4 
L 749.71417 43.2 
" clip-path="url(#pff26369b7a)" style="fill: none; stroke-dasharray: 5.12,1.28,0.8,1.28; stroke-dashoffset: 0; stroke: #b0b0b0; stroke-width: 0.8"/>
     </g>
     <g id="line2d_18">
      <g>
       <use xlink:href="#mc54302d454" x="749.71417" y="320.4" style="fill: #a9a9a9; stroke: #a9a9a9; stroke-width: 0.8"/>
      </g>
     </g>
     <g id="text_9">
      <!-- 2025-07 -->
      <g style="fill: #a9a9a9" transform="translate(728.822763 334.998438) scale(0.1 -0.1)">
       <use xlink:href="#DejaVuSans-32"/>
       <use xlink:href="#DejaVuSans-30" transform="translate(63.623047 0)"/>
       <use xlink:href="#DejaVuSans-32" transform="translate(127.246094 0)"/>
       <use xlink:href="#DejaVuSans-35" transform="translate(190.869141 0)"/>
       <use xlink:href="#DejaVuSans-2d" transform="translate(254.492188 0)"/>
       <use xlink:href="#DejaVuSans-30" transform="translate(290.576172 0)"/>
       <use xlink:href="#DejaVuSans-37" transform="translate(354.199219 0)"/>
      </g>
     </g>
    </g>
   </g>
   <g id="matplotlib.axis_2">
    <g id="ytick_1">
     <g id="line2d_19">
      <path d="M 108 307.832391 
L 777.6 307.832391 
" clip-path="url(#pff26369b7a)" style="fill: none; stroke-dasharray: 5.12,1.28,0.8,1.28; stroke-dashoffset: 0; stroke: #b0b0b0; stroke-width: 0.8"/>
     </g>
     <g id="line2d_20">
      <defs>
       <path id="m6480352a8f" d="M 0 0 
L -3.5 0 
" style="stroke: #a9a9a9; stroke-width: 0.8"/>
      </defs>
      <g>
       <use xlink:href="#m6480352a8f" x="108" y="307.832391" style="fill: #a9a9a9; stroke: #a9a9a9; stroke-width: 0.8"/>
      </g>
     </g>
     <g id="text_10">
      <!-- 0 -->
      <g style="fill: #a9a9a9" transform="translate(94.6375 311.631609) scale(0.1 -0.1)">
       <use xlink:href="#DejaVuSans-30"/>
      </g>
     </g>
    </g>
    <g id="ytick_2">
     <g id="line2d_21">
      <path d="M 108 275.441645 
L 777.6 275.441645 
" clip-path="url(#pff26369b7a)" style="fill: none; stroke-dasharray: 5.12,1.28,0.8,1.28; stroke-dashoffset: 0; stroke: #b0b0b0; stroke-width: 0.8"/>
     </g>
     <g id="line2d_22">
      <g>
       <use xlink:href="#m6480352a8f" x="108" y="275.441645" style="fill: #a9a9a9; stroke: #a9a9a9; stroke-width: 0.8"/>
      </g>
     </g>
     <g id="text_11">
      <!-- 1000 -->
      <g style="fill: #a9a9a9" transform="translate(75.55 279.240864) scale(0.1 -0.1)">
       <use xlink:href="#DejaVuSans-31"/>
       <use xlink:href="#DejaVuSans-30" transform="translate(63.623047 0)"/>
       <use xlink:href="#DejaVuSans-30" transform="translate(127.246094 0)"/>
       <use xlink:href="#DejaVuSans-30" transform="translate(190.869141 0)"/>
      </g>
     </g>
    </g>
    <g id="ytick_3">
     <g id="line2d_23">
      <path d="M 108 243.0509 
L 777.6 243.0509 
" clip-path="url(#pff26369b7a)" style="fill: none; stroke-dasharray: 5.12,1.28,0.8,1.28; stroke-dashoffset: 0; stroke: #b0b0b0; stroke-width: 0.8"/>
     </g>
     <g id="line2d_24">
      <g>
       <use xlink:href="#m6480352a8f" x="108" y="243.0509" style="fill: #a9a9a9; stroke: #a9a9a9; stroke-width: 0.8"/>
      </g>
     </g>
     <g id="text_12">
      <!-- 2000 -->
      <g style="fill: #a9a9a9" transform="translate(75.55 246.850118) scale(0.1 -0.1)">
       <use xlink:href="#DejaVuSans-32"/>
       <use xlink:href="#DejaVuSans-30" transform="translate(63.623047 0)"/>
       <use xlink:href="#DejaVuSans-30" transform="translate(127.246094 0)"/>
       <use xlink:href="#DejaVuSans-30" transform="translate(190.869141 0)"/>
      </g>
     </g>
    </g>
    <g id="ytick_4">
     <g id="line2d_25">
      <path d="M 108 210.660154 
L 777.6 210.660154 
" clip-path="url(#pff26369b7a)" style="fill: none; stroke-dasharray: 5.12,1.28,0.8,1.28; stroke-dashoffset: 0; stroke: #b0b0b0; stroke-width: 0.8"/>
     </g>
     <g id="line2d_26">
      <g>
       <use xlink:href="#m6480352a8f" x="108" y="210.660154" style="fill: #a9a9a9; stroke: #a9a9a9; stroke-width: 0.8"/>
      </g>
     </g>
     <g id="text_13">
      <!-- 3000 -->
      <g style="fill: #a9a9a9" transform="translate(75.55 214.459373) scale(0.1 -0.1)">
       <use xlink:href="#DejaVuSans-33"/>
       <use xlink:href="#DejaVuSans-30" transform="translate(63.623047 0)"/>
       <use xlink:href="#DejaVuSans-30" transform="translate(127.246094 0)"/>
       <use xlink:href="#DejaVuSans-30" transform="translate(190.869141 0)"/>
      </g>
     </g>
    </g>
    <g id="ytick_5">
     <g id="line2d_27">
      <path d="M 108 178.269409 
L 777.6 178.269409 
" clip-path="url(#pff26369b7a)" style="fill: none; stroke-dasharray: 5.12,1.28,0.8,1.28; stroke-dashoffset: 0; stroke: #b0b0b0; stroke-width: 0.8"/>
     </g>
     <g id="line2d_28">
      <g>
       <use xlink:href="#m6480352a8f" x="108" y="178.269409" style="fill: #a9a9a9; stroke: #a9a9a9; stroke-width: 0.8"/>
      </g>
     </g>
     <g id="text_14">
      <!-- 4000 -->
      <g style="fill: #a9a9a9" transform="translate(75.55 182.068627) scale(0.1 -0.1)">
       <use xlink:href="#DejaVuSans-34"/>
       <use xlink:href="#DejaVuSans-30" transform="translate(63.623047 0)"/>
       <use xlink:href="#DejaVuSans-30" transform="translate(127.246094 0)"/>
       <use xlink:href="#DejaVuSans-30" transform="translate(190.869141 0)"/>
      </g>
     </g>
    </g>
    <g id="ytick_6">
     <g id="line2d_29">
      <path d="M 108 145.878663 
L 777.6 145.878663 
" clip-path="url(#pff26369b7a)" style="fill: none; stroke-dasharray: 5.12,1.28,0.8,1.28; stroke-dashoffset: 0; stroke: #b0b0b0; stroke-width: 0.8"/>
     </g>
     <g id="line2d_30">
      <g>
       <use xlink:href="#m6480352a8f" x="108" y="145.878663" style="fill: #a9a9a9; stroke: #a9a9a9; stroke-width: 0.8"/>
      </g>
     </g>
     <g id="text_15">
      <!-- 5000 -->
      <g style="fill: #a9a9a9" transform="translate(75.55 149.677882) scale(0.1 -0.1)">
       <use xlink:href="#DejaVuSans-35"/>
       <use xlink:href="#DejaVuSans-30" transform="translate(63.623047 0)"/>
       <use xlink:href="#DejaVuSans-30" transform="translate(127.246094 0)"/>
       <use xlink:href="#DejaVuSans-30" transform="translate(190.869141 0)"/>
      </g>
     </g>
    </g>
    <g id="ytick_7">
     <g id="line2d_31">
      <path d="M 108 113.487918 
L 777.6 113.487918 
" clip-path="url(#pff26369b7a)" style="fill: none; stroke-dasharray: 5.12,1.28,0.8,1.28; stroke-dashoffset: 0; stroke: #b0b0b0; stroke-width: 0.8"/>
     </g>
     <g id="line2d_32">
      <g>
       <use xlink:href="#m6480352a8f" x="108" y="113.487918" style="fill: #a9a9a9; stroke: #a9a9a9; stroke-width: 0.8"/>
      </g>
     </g>
     <g id="text_16">
      <!-- 6000 -->
      <g style="fill: #a9a9a9" transform="translate(75.55 117.287136) scale(0.1 -0.1)">
       <defs>
        <path id="DejaVuSans-36" d="M 2113 2584 
Q 1688 2584 1439 2293 
Q 1191 2003 1191 1497 
Q 1191 994 1439 701 
Q 1688 409 2113 409 
Q 2538 409 2786 701 
Q 3034 994 3034 1497 
Q 3034 2003 2786 2293 
Q 2538 2584 2113 2584 
z
M 3366 4563 
L 3366 3988 
Q 3128 4100 2886 4159 
Q 2644 4219 2406 4219 
Q 1781 4219 1451 3797 
Q 1122 3375 1075 2522 
Q 1259 2794 1537 2939 
Q 1816 3084 2150 3084 
Q 2853 3084 3261 2657 
Q 3669 2231 3669 1497 
Q 3669 778 3244 343 
Q 2819 -91 2113 -91 
Q 1303 -91 875 529 
Q 447 1150 447 2328 
Q 447 3434 972 4092 
Q 1497 4750 2381 4750 
Q 2619 4750 2861 4703 
Q 3103 4656 3366 4563 
z
" transform="scale(0.015625)"/>
       </defs>
       <use xlink:href="#DejaVuSans-36"/>
       <use xlink:href="#DejaVuSans-30" transform="translate(63.623047 0)"/>
       <use xlink:href="#DejaVuSans-30" transform="translate(127.246094 0)"/>
       <use xlink:href="#DejaVuSans-30" transform="translate(190.869141 0)"/>
      </g>
     </g>
    </g>
    <g id="ytick_8">
     <g id="line2d_33">
      <path d="M 108 81.097172 
L 777.6 81.097172 
" clip-path="url(#pff26369b7a)" style="fill: none; stroke-dasharray: 5.12,1.28,0.8,1.28; stroke-dashoffset: 0; stroke: #b0b0b0; stroke-width: 0.8"/>
     </g>
     <g id="line2d_34">
      <g>
       <use xlink:href="#m6480352a8f" x="108" y="81.097172" style="fill: #a9a9a9; stroke: #a9a9a9; stroke-width: 0.8"/>
      </g>
     </g>
     <g id="text_17">
      <!-- 7000 -->
      <g style="fill: #a9a9a9" transform="translate(75.55 84.896391) scale(0.1 -0.1)">
       <use xlink:href="#DejaVuSans-37"/>
       <use xlink:href="#DejaVuSans-30" transform="translate(63.623047 0)"/>
       <use xlink:href="#DejaVuSans-30" transform="translate(127.246094 0)"/>
       <use xlink:href="#DejaVuSans-30" transform="translate(190.869141 0)"/>
      </g>
     </g>
    </g>
    <g id="ytick_9">
     <g id="line2d_35">
      <path d="M 108 48.706427 
L 777.6 48.706427 
" clip-path="url(#pff26369b7a)" style="fill: none; stroke-dasharray: 5.12,1.28,0.8,1.28; stroke-dashoffset: 0; stroke: #b0b0b0; stroke-width: 0.8"/>
     </g>
     <g id="line2d_36">
      <g>
       <use xlink:href="#m6480352a8f" x="108" y="48.706427" style="fill: #a9a9a9; stroke: #a9a9a9; stroke-width: 0.8"/>
      </g>
     </g>
     <g id="text_18">
      <!-- 8000 -->
      <g style="fill: #a9a9a9" transform="translate(75.55 52.505645) scale(0.1 -0.1)">
       <defs>
        <path id="DejaVuSans-38" d="M 2034 2216 
Q 1584 2216 1326 1975 
Q 1069 1734 1069 1313 
Q 1069 891 1326 650 
Q 1584 409 2034 409 
Q 2484 409 2743 651 
Q 3003 894 3003 1313 
Q 3003 1734 2745 1975 
Q 2488 2216 2034 2216 
z
M 1403 2484 
Q 997 2584 770 2862 
Q 544 3141 544 3541 
Q 544 4100 942 4425 
Q 1341 4750 2034 4750 
Q 2731 4750 3128 4425 
Q 3525 4100 3525 3541 
Q 3525 3141 3298 2862 
Q 3072 2584 2669 2484 
Q 3125 2378 3379 2068 
Q 3634 1759 3634 1313 
Q 3634 634 3220 271 
Q 2806 -91 2034 -91 
Q 1263 -91 848 271 
Q 434 634 434 1313 
Q 434 1759 690 2068 
Q 947 2378 1403 2484 
z
M 1172 3481 
Q 1172 3119 1398 2916 
Q 1625 2713 2034 2713 
Q 2441 2713 2670 2916 
Q 2900 3119 2900 3481 
Q 2900 3844 2670 4047 
Q 2441 4250 2034 4250 
Q 1625 4250 1398 4047 
Q 1172 3844 1172 3481 
z
" transform="scale(0.015625)"/>
       </defs>
       <use xlink:href="#DejaVuSans-38"/>
       <use xlink:href="#DejaVuSans-30" transform="translate(63.623047 0)"/>
       <use xlink:href="#DejaVuSans-30" transform="translate(127.246094 0)"/>
       <use xlink:href="#DejaVuSans-30" transform="translate(190.869141 0)"/>
      </g>
     </g>
    </g>
   </g>
   <g id="line2d_37">
    <path d="M 138.436364 307.735219 
L 140.986897 307.508483 
L 141.411986 307.314139 
L 143.112341 307.087404 
L 144.812697 306.731105 
L 145.662875 306.601542 
L 147.788319 306.407198 
L 148.638497 306.0509 
L 149.063586 305.467866 
L 149.488674 305.17635 
L 149.913763 304.204627 
L 150.338852 304.139846 
L 150.763941 303.783548 
L 151.614119 303.330077 
L 153.314474 301.904884 
L 155.01483 301.030334 
L 156.290096 300.41491 
L 156.715185 299.702314 
L 157.565363 299.054499 
L 157.990452 298.860154 
L 162.241341 298.212339 
L 162.66643 298.017995 
L 165.642052 297.758869 
L 167.342407 297.337789 
L 170.743118 296.851928 
L 171.168207 296.625193 
L 171.593296 296.560411 
L 172.443474 296.268895 
L 175.419096 295.750643 
L 176.269274 295.491517 
L 180.095074 294.843702 
L 180.945251 294.649357 
L 181.795429 294.616967 
L 183.495785 294.195887 
L 183.920874 293.580463 
L 185.19614 293.062211 
L 186.471407 292.705913 
L 186.896496 292.479177 
L 187.746673 292.317224 
L 189.447029 291.798972 
L 190.297207 291.73419 
L 191.147384 291.507455 
L 192.84774 291.053985 
L 193.272829 291.021594 
L 194.123007 290.600514 
L 194.548095 290.535733 
L 194.973184 290.308997 
L 199.649162 289.499229 
L 201.349518 288.980977 
L 201.774606 288.68946 
L 203.900051 287.976864 
L 204.750229 287.36144 
L 206.025495 287.102314 
L 215.37745 284.284319 
L 215.802539 284.251928 
L 217.077806 283.863239 
L 217.502895 283.863239 
L 217.927984 283.668895 
L 218.778162 283.571722 
L 219.20325 283.409769 
L 220.903606 283.344987 
L 221.753784 283.183033 
L 222.603961 282.729563 
L 223.879228 282.243702 
L 224.729406 281.790231 
L 225.579584 281.336761 
L 226.429761 281.045244 
L 226.85485 280.915681 
L 227.705028 280.365039 
L 228.130117 279.879177 
L 228.980295 278.518766 
L 229.405383 278.389203 
L 229.830472 278.389203 
L 231.530828 277.417481 
L 231.955917 277.320308 
L 232.381006 276.899229 
L 233.231183 276.542931 
L 234.081361 276.154242 
L 234.50645 275.63599 
L 234.931539 274.923393 
L 235.356628 274.631877 
L 235.781717 273.854499 
L 236.206805 273.368638 
L 238.757339 271.943445 
L 239.607517 271.230848 
L 240.032605 270.971722 
L 240.457694 270.356298 
L 240.882783 269.352185 
L 241.307872 268.671979 
L 241.732961 268.315681 
L 242.15805 268.121337 
L 245.558761 264.914653 
L 246.408939 264.104884 
L 248.959472 262.452956 
L 249.384561 262.291003 
L 251.084916 261.254499 
L 251.510005 261.060154 
L 253.635449 259.051928 
L 254.485627 258.69563 
L 255.335805 258.080206 
L 255.760894 257.82108 
L 256.185983 257.756298 
L 257.461249 257.011311 
L 257.886338 256.52545 
L 260.011783 255.326992 
L 260.436872 255.165039 
L 261.712138 254.258098 
L 268.088471 251.925964 
L 268.938649 251.116195 
L 270.213916 250.46838 
L 271.064093 249.917738 
L 271.914271 249.658612 
L 272.33936 249.367095 
L 272.764449 249.237532 
L 274.039716 248.362982 
L 276.16516 247.877121 
L 277.440427 247.099743 
L 278.715693 246.808226 
L 279.140782 246.711054 
L 280.416049 245.706941 
L 282.116404 245.22108 
L 282.541493 244.864781 
L 285.092026 243.957841 
L 285.942204 243.795887 
L 286.792382 243.439589 
L 289.768004 242.305913 
L 290.618182 242.17635 
L 291.893448 241.722879 
L 294.018893 240.653985 
L 296.569426 239.196401 
L 297.419604 238.969666 
L 298.69487 238.321851 
L 299.545048 238.159897 
L 300.395226 237.641645 
L 301.245404 237.41491 
L 302.52067 236.896658 
L 304.221026 236.669923 
L 305.071204 236.216452 
L 305.496293 235.827763 
L 305.921381 235.050386 
L 307.621737 234.564524 
L 308.897004 233.884319 
L 309.747181 233.592802 
L 311.022448 232.944987 
L 313.147892 232.070437 
L 313.99807 231.876093 
L 315.273337 231.228278 
L 315.698426 231.163496 
L 317.82387 230.094602 
L 318.674048 229.543959 
L 319.949314 229.284833 
L 322.074759 228.73419 
L 322.499848 228.377892 
L 323.350025 228.086375 
L 325.47547 227.211825 
L 325.900559 226.887918 
L 326.325648 226.725964 
L 327.175825 226.240103 
L 328.876181 225.68946 
L 329.726359 225.138817 
L 330.151447 224.685347 
L 330.576536 224.426221 
L 331.001625 224.329049 
L 331.851803 223.616452 
L 332.276892 223.551671 
L 332.701981 222.839075 
L 333.12707 222.64473 
L 333.552158 222.288432 
L 333.977247 222.22365 
L 334.827425 221.673008 
L 335.677603 221.381491 
L 336.102692 221.057584 
L 336.527781 220.89563 
L 338.228136 219.729563 
L 339.503403 219.081748 
L 340.35358 218.855013 
L 341.203758 218.369152 
L 341.628847 217.624165 
L 342.479025 216.97635 
L 342.904114 216.879177 
L 345.454647 215.615938 
L 346.304825 215.25964 
L 347.155003 214.644216 
L 348.430269 213.445758 
L 349.280447 212.927506 
L 349.705536 212.441645 
L 351.405891 211.243188 
L 352.256069 210.368638 
L 353.106247 210.077121 
L 353.956425 209.494087 
L 355.231691 208.813882 
L 355.65678 208.7491 
L 356.932047 208.036504 
L 357.782224 207.485861 
L 362.033113 205.866324 
L 362.458202 205.510026 
L 364.158558 204.82982 
L 364.583647 204.700257 
L 365.433824 204.149614 
L 366.284002 203.793316 
L 367.13418 203.177892 
L 367.984358 201.428792 
L 368.834535 200.392288 
L 370.109802 199.712082 
L 370.95998 199.355784 
L 371.385069 199.291003 
L 372.235246 198.902314 
L 373.935602 198.31928 
L 374.78578 197.833419 
L 375.635957 197.412339 
L 376.061046 197.282776 
L 378.611579 195.728021 
L 379.036668 195.242159 
L 380.311935 194.497172 
L 380.737024 194.335219 
L 381.587202 193.816967 
L 383.287557 192.877635 
L 383.712646 192.780463 
L 384.137735 192.424165 
L 387.113357 191.420051 
L 387.538446 191.096144 
L 388.388624 190.837018 
L 389.238801 190.48072 
L 389.66389 190.124422 
L 391.364246 189.508997 
L 392.214424 188.893573 
L 393.064601 188.537275 
L 393.914779 187.857069 
L 394.764957 187.597943 
L 395.190046 187.209254 
L 395.615135 187.144473 
L 396.465312 186.464267 
L 398.590757 185.201028 
L 399.440934 184.941902 
L 399.866023 184.682776 
L 400.291112 184.617995 
L 401.566379 183.905398 
L 403.266734 183.322365 
L 404.116912 183.192802 
L 404.542001 182.998458 
L 404.96709 182.933676 
L 405.817268 182.544987 
L 406.242357 182.512596 
L 407.942712 181.864781 
L 409.217979 180.92545 
L 409.643068 180.763496 
L 410.493245 180.277635 
L 410.918334 180.148072 
L 413.468867 178.690488 
L 413.893956 178.593316 
L 415.169223 177.815938 
L 416.44449 177.362468 
L 417.294667 177.070951 
L 418.995023 176.487918 
L 419.845201 176.196401 
L 421.545556 175.840103 
L 421.970645 175.645758 
L 422.820823 175.419023 
L 423.245912 175.224679 
L 423.671001 175.159897 
L 424.096089 174.933162 
L 424.946267 174.771208 
L 426.221534 174.285347 
L 427.071712 174.188175 
L 428.346978 173.896658 
L 430.472423 173.507969 
L 441.524733 170.139332 
L 441.949822 169.685861 
L 444.500356 168.616967 
L 446.200711 168.033933 
L 446.6258 167.774807 
L 447.901067 167.386118 
L 448.751244 167.159383 
L 449.176333 166.867866 
L 449.601422 166.770694 
L 450.026511 166.382005 
L 451.301778 166.122879 
L 452.151955 165.73419 
L 452.577044 165.215938 
L 457.253022 164.179434 
L 457.678111 164.179434 
L 458.1032 163.98509 
L 459.803555 163.661183 
L 460.228644 163.466838 
L 461.928999 163.142931 
L 462.779177 162.786632 
L 463.629355 162.624679 
L 465.754799 162.074036 
L 467.455155 161.523393 
L 467.880244 161.426221 
L 468.305333 161.199486 
L 469.15551 160.972751 
L 470.005688 160.616452 
L 470.855866 160.292545 
L 471.280955 160.001028 
L 472.131133 159.741902 
L 475.106755 158.608226 
L 476.80711 158.381491 
L 480.207821 157.118252 
L 480.63291 156.794344 
L 481.057999 156.697172 
L 481.483088 156.470437 
L 481.908177 156.438046 
L 486.584154 154.721337 
L 488.709599 154.138303 
L 489.559777 153.717224 
L 490.835043 153.425707 
L 492.535399 152.000514 
L 494.235754 151.255527 
L 495.085932 150.866838 
L 497.636465 149.862725 
L 498.061554 149.571208 
L 500.186998 148.858612 
L 501.462265 148.113625 
L 501.887354 148.016452 
L 504.012798 146.850386 
L 505.288065 146.267352 
L 505.713154 145.943445 
L 506.563332 145.651928 
L 508.688776 144.550643 
L 509.964043 144.097172 
L 511.664398 143.384576 
L 512.939665 142.898715 
L 513.364754 142.736761 
L 514.214931 142.607198 
L 514.64002 142.315681 
L 516.340376 141.991774 
L 517.190554 141.635476 
L 518.890909 140.825707 
L 524.842153 138.169666 
L 526.11742 137.748586 
L 526.542509 137.457069 
L 527.392687 137.359897 
L 527.817776 137.06838 
L 528.667953 136.938817 
L 529.518131 136.517738 
L 529.94322 136.323393 
L 530.793398 136.096658 
L 531.643575 135.837532 
L 532.918842 135.351671 
L 534.194109 134.930591 
L 535.469375 134.639075 
L 537.169731 133.926478 
L 538.019909 133.440617 
L 539.720264 132.566067 
L 540.570442 132.371722 
L 540.995531 132.112596 
L 541.42062 132.015424 
L 542.695886 131.270437 
L 543.546064 130.914139 
L 552.898019 127.286375 
L 554.598375 126.476607 
L 558.849264 124.792288 
L 559.699441 124.371208 
L 560.12453 124.274036 
L 560.549619 124.047301 
L 562.249975 123.56144 
L 563.95033 122.136247 
L 564.375419 122.006684 
L 564.800508 121.747558 
L 566.075775 121.39126 
L 566.500863 121.067352 
L 566.925952 120.97018 
L 568.201219 120.192802 
L 568.626308 119.901285 
L 569.901574 119.415424 
L 570.326663 119.188689 
L 571.60193 118.897172 
L 573.727374 118.152185 
L 574.577552 117.893059 
L 575.852819 117.245244 
L 576.702996 116.824165 
L 577.553174 116.597429 
L 578.828441 115.982005 
L 582.654241 114.524422 
L 583.929507 113.714653 
L 584.354596 113.617481 
L 585.204774 113.196401 
L 586.054952 112.872494 
L 586.480041 112.483805 
L 587.330218 112.127506 
L 588.605485 111.674036 
L 589.030574 111.317738 
L 589.455663 111.285347 
L 590.305841 111.026221 
L 591.156018 110.734704 
L 591.581107 110.54036 
L 592.006196 110.475578 
L 592.856374 110.11928 
L 594.13164 109.827763 
L 594.981818 109.341902 
L 595.406907 109.179949 
L 595.831996 108.856041 
L 597.107263 108.532134 
L 597.532351 108.273008 
L 598.382529 108.046272 
L 599.657796 107.301285 
L 600.082885 107.268895 
L 601.358151 106.847815 
L 602.208329 106.783033 
L 602.633418 106.556298 
L 603.483596 106.329563 
L 603.908685 106.102828 
L 606.034129 105.681748 
L 606.884307 105.519794 
L 608.159573 105.033933 
L 609.43484 104.742416 
L 610.710107 104.062211 
L 611.135196 103.673522 
L 612.410462 102.896144 
L 612.835551 102.572237 
L 614.110818 102.151157 
L 614.960995 101.924422 
L 618.786795 100.240103 
L 620.487151 99.786632 
L 621.337329 99.397943 
L 621.762417 99.171208 
L 622.612595 98.912082 
L 623.037684 98.685347 
L 623.887862 98.523393 
L 627.288573 97.033419 
L 627.713662 96.968638 
L 628.988928 96.126478 
L 629.414017 96.061697 
L 631.114373 95.381491 
L 632.814728 94.960411 
L 633.239817 94.89563 
L 633.664906 94.701285 
L 634.089995 94.668895 
L 634.940173 94.377378 
L 635.365262 94.344987 
L 636.640528 93.859126 
L 638.340884 93.373265 
L 639.191061 92.72545 
L 640.891417 91.753728 
L 641.316506 91.656555 
L 641.741595 91.42982 
L 642.591772 91.138303 
L 643.016861 91.00874 
L 643.44195 90.652442 
L 644.717217 90.166581 
L 645.567395 89.68072 
L 645.992483 89.453985 
L 646.417572 89.065296 
L 648.543017 88.482262 
L 649.818283 87.899229 
L 650.668461 87.672494 
L 651.09355 87.445758 
L 651.518639 87.08946 
L 653.218994 86.63599 
L 653.644083 86.312082 
L 659.170239 84.271465 
L 660.020416 84.109512 
L 662.145861 83.429306 
L 662.996039 83.073008 
L 663.846216 82.7491 
L 664.696394 82.522365 
L 665.121483 82.328021 
L 665.546572 82.328021 
L 666.39675 81.971722 
L 667.246927 81.485861 
L 670.22255 80.481748 
L 671.922905 79.898715 
L 673.198172 79.607198 
L 674.473438 79.186118 
L 674.898527 79.088946 
L 675.323616 78.797429 
L 676.173794 78.603085 
L 677.874149 78.117224 
L 678.299238 78.084833 
L 679.149416 77.696144 
L 682.125038 76.951157 
L 682.975216 76.594859 
L 687.226105 75.623136 
L 688.501371 74.942931 
L 689.776638 74.554242 
L 694.027527 72.967095 
L 694.452616 72.643188 
L 695.727882 72.351671 
L 696.57806 72.092545 
L 697.428238 71.671465 
L 697.853327 71.315167 
L 698.703504 71.056041 
L 699.128593 70.796915 
L 699.978771 70.699743 
L 702.954393 69.857584 
L 704.22966 69.598458 
L 705.504926 69.27455 
L 706.355104 69.047815 
L 707.630371 68.367609 
L 709.330726 67.719794 
L 710.180904 67.266324 
L 710.605993 67.233933 
L 711.456171 66.812853 
L 714.431793 65.970694 
L 715.707059 65.77635 
L 716.557237 65.484833 
L 717.832504 65.096144 
L 721.658304 64.027249 
L 722.508481 63.800514 
L 722.93357 63.703342 
L 723.358659 63.444216 
L 724.208837 63.282262 
L 725.059015 63.18509 
L 725.484104 62.958355 
L 725.909192 62.925964 
L 727.184459 62.278149 
L 728.459726 61.986632 
L 729.309904 61.597943 
L 730.160081 61.306427 
L 731.010259 61.079692 
L 731.860437 60.723393 
L 732.710615 60.431877 
L 734.41097 59.946015 
L 735.261148 59.881234 
L 736.111326 59.589717 
L 736.536414 59.427763 
L 737.386592 59.298201 
L 739.086948 58.520823 
L 739.512037 58.456041 
L 739.937125 58.229306 
L 740.787303 58.067352 
L 741.637481 58.002571 
L 743.762925 57.419537 
L 744.613103 57.063239 
L 745.88837 56.577378 
L 746.738547 55.8 
L 747.163636 55.8 
L 747.163636 55.8 
" clip-path="url(#pff26369b7a)" style="fill: none; stroke: #1f77b4; stroke-width: 1.5; stroke-linecap: square"/>
   </g>
   <g id="line2d_38">
    <path d="M 138.861453 307.8 
L 142.687252 307.702828 
L 146.087963 307.540874 
L 147.788319 307.540874 
L 148.213408 307.411311 
L 150.338852 307.314139 
L 152.889385 307.022622 
L 155.439919 306.92545 
L 156.290096 306.828278 
L 159.265719 306.698715 
L 162.241341 306.601542 
L 164.366785 306.536761 
L 169.892941 306.439589 
L 172.018385 306.374807 
L 175.844185 306.277635 
L 177.54454 306.245244 
L 181.795429 306.148072 
L 183.495785 305.986118 
L 185.19614 305.953728 
L 187.746673 305.856555 
L 189.447029 305.824165 
L 191.572473 305.759383 
L 193.272829 305.597429 
L 197.098629 305.500257 
L 197.948807 305.435476 
L 199.649162 305.338303 
L 202.199695 305.241131 
L 203.900051 305.143959 
L 211.551651 304.658098 
L 214.527273 304.560925 
L 215.802539 304.431362 
L 217.927984 304.33419 
L 222.178873 304.107455 
L 226.429761 304.042674 
L 228.130117 303.848329 
L 230.255561 303.751157 
L 234.50645 303.330077 
L 237.056983 303.00617 
L 238.757339 302.941388 
L 242.15805 302.487918 
L 244.708583 302.423136 
L 245.98385 302.293573 
L 247.259116 302.196401 
L 259.161605 301.257069 
L 260.011783 301.095116 
L 262.562316 300.997943 
L 269.363738 300.576864 
L 272.33936 300.479692 
L 274.039716 300.285347 
L 276.16516 300.188175 
L 278.715693 300.091003 
L 280.841138 299.99383 
L 282.541493 299.96144 
L 284.666938 299.896658 
L 285.517115 299.767095 
L 291.46836 299.669923 
L 292.318537 299.572751 
L 297.419604 299.475578 
L 301.245404 299.281234 
L 304.221026 299.184062 
L 305.921381 298.989717 
L 308.897004 298.892545 
L 309.747181 298.762982 
L 311.872626 298.698201 
L 316.123514 298.633419 
L 317.82387 298.471465 
L 319.524225 298.439075 
L 320.799492 298.341902 
L 322.499848 298.179949 
L 326.750736 297.953213 
L 331.001625 297.856041 
L 334.827425 297.661697 
L 336.102692 297.629306 
L 336.952869 297.499743 
L 339.078314 297.402571 
L 339.928492 297.337789 
L 340.778669 297.273008 
L 341.628847 297.208226 
L 345.879736 297.111054 
L 357.782224 296.301285 
L 360.332758 296.204113 
L 362.458202 296.139332 
L 368.409446 296.042159 
L 369.259624 295.912596 
L 375.210868 295.815424 
L 379.461757 295.588689 
L 380.311935 295.556298 
L 381.162113 295.459126 
L 383.287557 295.361954 
L 385.413002 295.297172 
L 387.538446 295.2 
L 389.66389 295.135219 
L 393.48969 295.038046 
L 396.040223 294.940874 
L 401.991468 294.843702 
L 406.667445 294.584576 
L 408.367801 294.519794 
L 409.643068 294.422622 
L 415.594312 294.32545 
L 418.144845 294.228278 
L 425.796445 294.131105 
L 427.4968 294.098715 
L 432.597867 294.033933 
L 433.448045 293.969152 
L 439.399289 293.871979 
L 441.099644 293.839589 
L 452.151955 293.742416 
L 454.702489 293.645244 
L 472.556221 293.548072 
L 474.681666 293.48329 
L 485.733977 293.418509 
L 486.584154 293.353728 
L 488.709599 293.288946 
L 489.984865 293.159383 
L 492.535399 293.062211 
L 495.511021 292.932648 
L 499.336821 292.835476 
L 501.462265 292.770694 
L 504.437887 292.673522 
L 507.838598 292.511568 
L 509.964043 292.414396 
L 511.664398 292.382005 
L 515.490198 292.284833 
L 517.190554 292.252442 
L 522.716709 292.15527 
L 524.417064 292.122879 
L 526.542509 292.025707 
L 529.093042 291.928535 
L 532.068664 291.863753 
L 532.918842 291.798972 
L 543.120975 291.701799 
L 547.371864 291.475064 
L 550.347486 291.377892 
L 555.023464 291.118766 
L 557.999086 291.021594 
L 559.699441 290.989203 
L 562.675063 290.892031 
L 564.800508 290.665296 
L 569.051397 290.568123 
L 569.901574 290.470951 
L 574.152463 290.373779 
L 576.277908 290.308997 
L 580.953885 290.276607 
L 581.804063 290.179434 
L 586.480041 290.082262 
L 587.330218 290.017481 
L 596.682174 289.920308 
L 599.232707 289.823136 
L 605.60904 289.725964 
L 607.309396 289.693573 
L 611.135196 289.628792 
L 611.985373 289.53162 
L 617.511529 289.434447 
L 619.636973 289.369666 
L 627.288573 289.272494 
L 628.56384 289.175321 
L 629.839106 289.078149 
L 631.114373 288.980977 
L 637.490706 288.883805 
L 640.041239 288.786632 
L 651.518639 288.68946 
L 655.344439 288.495116 
L 660.445505 288.397943 
L 661.295683 288.333162 
L 667.672016 288.26838 
L 668.522194 288.203599 
L 673.198172 288.106427 
L 674.898527 288.074036 
L 680.849771 287.976864 
L 683.400305 287.879692 
L 690.626816 287.782519 
L 692.327171 287.750129 
L 696.152971 287.652956 
L 699.553682 287.491003 
L 704.22966 287.39383 
L 707.205282 287.264267 
L 711.031082 287.167095 
L 711.88126 287.102314 
L 720.383037 287.005141 
L 722.508481 286.94036 
L 725.059015 286.843188 
L 727.609548 286.746015 
L 740.362214 286.648843 
L 743.337836 286.51928 
L 747.163636 286.422108 
L 747.163636 286.422108 
" clip-path="url(#pff26369b7a)" style="fill: none; stroke: #ff7f0e; stroke-width: 1.5; stroke-linecap: square"/>
   </g>
   <g id="patch_3">
    <path d="M 108 320.4 
L 108 43.2 
" style="fill: none; stroke: #a9a9a9; stroke-width: 0.8; stroke-linejoin: miter; stroke-linecap: square"/>
   </g>
   <g id="patch_4">
    <path d="M 777.6 320.4 
L 777.6 43.2 
" style="fill: none"/>
   </g>
   <g id="patch_5">
    <path d="M 108 320.4 
L 777.6 320.4 
" style="fill: none; stroke: #a9a9a9; stroke-width: 0.8; stroke-linejoin: miter; stroke-linecap: square"/>
   </g>
   <g id="patch_6">
    <path d="M 108 43.2 
L 777.6 43.2 
" style="fill: none"/>
   </g>
   <g id="text_19">
    <!-- get_subscribe history -->
    <g style="fill: #a9a9a9" transform="translate(378.6075 37.2) scale(0.12 -0.12)">
     <defs>
      <path id="DejaVuSans-67" d="M 2906 1791 
Q 2906 2416 2648 2759 
Q 2391 3103 1925 3103 
Q 1463 3103 1205 2759 
Q 947 2416 947 1791 
Q 947 1169 1205 825 
Q 1463 481 1925 481 
Q 2391 481 2648 825 
Q 2906 1169 2906 1791 
z
M 3481 434 
Q 3481 -459 3084 -895 
Q 2688 -1331 1869 -1331 
Q 1566 -1331 1297 -1286 
Q 1028 -1241 775 -1147 
L 775 -588 
Q 1028 -725 1275 -790 
Q 1522 -856 1778 -856 
Q 2344 -856 2625 -561 
Q 2906 -266 2906 331 
L 2906 616 
Q 2728 306 2450 153 
Q 2172 0 1784 0 
Q 1141 0 747 490 
Q 353 981 353 1791 
Q 353 2603 747 3093 
Q 1141 3584 1784 3584 
Q 2172 3584 2450 3431 
Q 2728 3278 2906 2969 
L 2906 3500 
L 3481 3500 
L 3481 434 
z
" transform="scale(0.015625)"/>
      <path id="DejaVuSans-65" d="M 3597 1894 
L 3597 1613 
L 953 1613 
Q 991 1019 1311 708 
Q 1631 397 2203 397 
Q 2534 397 2845 478 
Q 3156 559 3463 722 
L 3463 178 
Q 3153 47 2828 -22 
Q 2503 -91 2169 -91 
Q 1331 -91 842 396 
Q 353 884 353 1716 
Q 353 2575 817 3079 
Q 1281 3584 2069 3584 
Q 2775 3584 3186 3129 
Q 3597 2675 3597 1894 
z
M 3022 2063 
Q 3016 2534 2758 2815 
Q 2500 3097 2075 3097 
Q 1594 3097 1305 2825 
Q 1016 2553 972 2059 
L 3022 2063 
z
" transform="scale(0.015625)"/>
      <path id="DejaVuSans-74" d="M 1172 4494 
L 1172 3500 
L 2356 3500 
L 2356 3053 
L 1172 3053 
L 1172 1153 
Q 1172 725 1289 603 
Q 1406 481 1766 481 
L 2356 481 
L 2356 0 
L 1766 0 
Q 1100 0 847 248 
Q 594 497 594 1153 
L 594 3053 
L 172 3053 
L 172 3500 
L 594 3500 
L 594 4494 
L 1172 4494 
z
" transform="scale(0.015625)"/>
      <path id="DejaVuSans-5f" d="M 3263 -1063 
L 3263 -1509 
L -63 -1509 
L -63 -1063 
L 3263 -1063 
z
" transform="scale(0.015625)"/>
      <path id="DejaVuSans-73" d="M 2834 3397 
L 2834 2853 
Q 2591 2978 2328 3040 
Q 2066 3103 1784 3103 
Q 1356 3103 1142 2972 
Q 928 2841 928 2578 
Q 928 2378 1081 2264 
Q 1234 2150 1697 2047 
L 1894 2003 
Q 2506 1872 2764 1633 
Q 3022 1394 3022 966 
Q 3022 478 2636 193 
Q 2250 -91 1575 -91 
Q 1294 -91 989 -36 
Q 684 19 347 128 
L 347 722 
Q 666 556 975 473 
Q 1284 391 1588 391 
Q 1994 391 2212 530 
Q 2431 669 2431 922 
Q 2431 1156 2273 1281 
Q 2116 1406 1581 1522 
L 1381 1569 
Q 847 1681 609 1914 
Q 372 2147 372 2553 
Q 372 3047 722 3315 
Q 1072 3584 1716 3584 
Q 2034 3584 2315 3537 
Q 2597 3491 2834 3397 
z
" transform="scale(0.015625)"/>
      <path id="DejaVuSans-75" d="M 544 1381 
L 544 3500 
L 1119 3500 
L 1119 1403 
Q 1119 906 1312 657 
Q 1506 409 1894 409 
Q 2359 409 2629 706 
Q 2900 1003 2900 1516 
L 2900 3500 
L 3475 3500 
L 3475 0 
L 2900 0 
L 2900 538 
Q 2691 219 2414 64 
Q 2138 -91 1772 -91 
Q 1169 -91 856 284 
Q 544 659 544 1381 
z
M 1991 3584 
L 1991 3584 
z
" transform="scale(0.015625)"/>
      <path id="DejaVuSans-62" d="M 3116 1747 
Q 3116 2381 2855 2742 
Q 2594 3103 2138 3103 
Q 1681 3103 1420 2742 
Q 1159 2381 1159 1747 
Q 1159 1113 1420 752 
Q 1681 391 2138 391 
Q 2594 391 2855 752 
Q 3116 1113 3116 1747 
z
M 1159 2969 
Q 1341 3281 1617 3432 
Q 1894 3584 2278 3584 
Q 2916 3584 3314 3078 
Q 3713 2572 3713 1747 
Q 3713 922 3314 415 
Q 2916 -91 2278 -91 
Q 1894 -91 1617 61 
Q 1341 213 1159 525 
L 1159 0 
L 581 0 
L 581 4863 
L 1159 4863 
L 1159 2969 
z
" transform="scale(0.015625)"/>
      <path id="DejaVuSans-63" d="M 3122 3366 
L 3122 2828 
Q 2878 2963 2633 3030 
Q 2388 3097 2138 3097 
Q 1578 3097 1268 2742 
Q 959 2388 959 1747 
Q 959 1106 1268 751 
Q 1578 397 2138 397 
Q 2388 397 2633 464 
Q 2878 531 3122 666 
L 3122 134 
Q 2881 22 2623 -34 
Q 2366 -91 2075 -91 
Q 1284 -91 818 406 
Q 353 903 353 1747 
Q 353 2603 823 3093 
Q 1294 3584 2113 3584 
Q 2378 3584 2631 3529 
Q 2884 3475 3122 3366 
z
" transform="scale(0.015625)"/>
      <path id="DejaVuSans-72" d="M 2631 2963 
Q 2534 3019 2420 3045 
Q 2306 3072 2169 3072 
Q 1681 3072 1420 2755 
Q 1159 2438 1159 1844 
L 1159 0 
L 581 0 
L 581 3500 
L 1159 3500 
L 1159 2956 
Q 1341 3275 1631 3429 
Q 1922 3584 2338 3584 
Q 2397 3584 2469 3576 
Q 2541 3569 2628 3553 
L 2631 2963 
z
" transform="scale(0.015625)"/>
      <path id="DejaVuSans-69" d="M 603 3500 
L 1178 3500 
L 1178 0 
L 603 0 
L 603 3500 
z
M 603 4863 
L 1178 4863 
L 1178 4134 
L 603 4134 
L 603 4863 
z
" transform="scale(0.015625)"/>
      <path id="DejaVuSans-20" transform="scale(0.015625)"/>
      <path id="DejaVuSans-68" d="M 3513 2113 
L 3513 0 
L 2938 0 
L 2938 2094 
Q 2938 2591 2744 2837 
Q 2550 3084 2163 3084 
Q 1697 3084 1428 2787 
Q 1159 2491 1159 1978 
L 1159 0 
L 581 0 
L 581 4863 
L 1159 4863 
L 1159 2956 
Q 1366 3272 1645 3428 
Q 1925 3584 2291 3584 
Q 2894 3584 3203 3211 
Q 3513 2838 3513 2113 
z
" transform="scale(0.015625)"/>
      <path id="DejaVuSans-6f" d="M 1959 3097 
Q 1497 3097 1228 2736 
Q 959 2375 959 1747 
Q 959 1119 1226 758 
Q 1494 397 1959 397 
Q 2419 397 2687 759 
Q 2956 1122 2956 1747 
Q 2956 2369 2687 2733 
Q 2419 3097 1959 3097 
z
M 1959 3584 
Q 2709 3584 3137 3096 
Q 3566 2609 3566 1747 
Q 3566 888 3137 398 
Q 2709 -91 1959 -91 
Q 1206 -91 779 398 
Q 353 888 353 1747 
Q 353 2609 779 3096 
Q 1206 3584 1959 3584 
z
" transform="scale(0.015625)"/>
      <path id="DejaVuSans-79" d="M 2059 -325 
Q 1816 -950 1584 -1140 
Q 1353 -1331 966 -1331 
L 506 -1331 
L 506 -850 
L 844 -850 
Q 1081 -850 1212 -737 
Q 1344 -625 1503 -206 
L 1606 56 
L 191 3500 
L 800 3500 
L 1894 763 
L 2988 3500 
L 3597 3500 
L 2059 -325 
z
" transform="scale(0.015625)"/>
     </defs>
     <use xlink:href="#DejaVuSans-67"/>
     <use xlink:href="#DejaVuSans-65" transform="translate(63.476562 0)"/>
     <use xlink:href="#DejaVuSans-74" transform="translate(125 0)"/>
     <use xlink:href="#DejaVuSans-5f" transform="translate(164.208984 0)"/>
     <use xlink:href="#DejaVuSans-73" transform="translate(214.208984 0)"/>
     <use xlink:href="#DejaVuSans-75" transform="translate(266.308594 0)"/>
     <use xlink:href="#DejaVuSans-62" transform="translate(329.6875 0)"/>
     <use xlink:href="#DejaVuSans-73" transform="translate(393.164062 0)"/>
     <use xlink:href="#DejaVuSans-63" transform="translate(445.263672 0)"/>
     <use xlink:href="#DejaVuSans-72" transform="translate(500.244141 0)"/>
     <use xlink:href="#DejaVuSans-69" transform="translate(541.357422 0)"/>
     <use xlink:href="#DejaVuSans-62" transform="translate(569.140625 0)"/>
     <use xlink:href="#DejaVuSans-65" transform="translate(632.617188 0)"/>
     <use xlink:href="#DejaVuSans-20" transform="translate(694.140625 0)"/>
     <use xlink:href="#DejaVuSans-68" transform="translate(725.927734 0)"/>
     <use xlink:href="#DejaVuSans-69" transform="translate(789.306641 0)"/>
     <use xlink:href="#DejaVuSans-73" transform="translate(817.089844 0)"/>
     <use xlink:href="#DejaVuSans-74" transform="translate(869.189453 0)"/>
     <use xlink:href="#DejaVuSans-6f" transform="translate(908.398438 0)"/>
     <use xlink:href="#DejaVuSans-72" transform="translate(969.580078 0)"/>
     <use xlink:href="#DejaVuSans-79" transform="translate(1010.693359 0)"/>
    </g>
   </g>
   <g id="legend_1">
    <g id="line2d_39">
     <path d="M 815.08 328.498438 
L 825.08 328.498438 
L 835.08 328.498438 
" style="fill: none; stroke: #1f77b4; stroke-width: 1.5; stroke-linecap: square"/>
    </g>
    <g id="text_20">
     <!-- star -->
     <g style="fill: #a9a9a9" transform="translate(843.08 331.998438) scale(0.1 -0.1)">
      <defs>
       <path id="DejaVuSans-61" d="M 2194 1759 
Q 1497 1759 1228 1600 
Q 959 1441 959 1056 
Q 959 750 1161 570 
Q 1363 391 1709 391 
Q 2188 391 2477 730 
Q 2766 1069 2766 1631 
L 2766 1759 
L 2194 1759 
z
M 3341 1997 
L 3341 0 
L 2766 0 
L 2766 531 
Q 2569 213 2275 61 
Q 1981 -91 1556 -91 
Q 1019 -91 701 211 
Q 384 513 384 1019 
Q 384 1609 779 1909 
Q 1175 2209 1959 2209 
L 2766 2209 
L 2766 2266 
Q 2766 2663 2505 2880 
Q 2244 3097 1772 3097 
Q 1472 3097 1187 3025 
Q 903 2953 641 2809 
L 641 3341 
Q 956 3463 1253 3523 
Q 1550 3584 1831 3584 
Q 2591 3584 2966 3190 
Q 3341 2797 3341 1997 
z
" transform="scale(0.015625)"/>
      </defs>
      <use xlink:href="#DejaVuSans-73"/>
      <use xlink:href="#DejaVuSans-74" transform="translate(52.099609 0)"/>
      <use xlink:href="#DejaVuSans-61" transform="translate(91.308594 0)"/>
      <use xlink:href="#DejaVuSans-72" transform="translate(152.587891 0)"/>
     </g>
    </g>
    <g id="line2d_40">
     <path d="M 815.08 343.176562 
L 825.08 343.176562 
L 835.08 343.176562 
" style="fill: none; stroke: #ff7f0e; stroke-width: 1.5; stroke-linecap: square"/>
    </g>
    <g id="text_21">
     <!-- fork -->
     <g style="fill: #a9a9a9" transform="translate(843.08 346.676562) scale(0.1 -0.1)">
      <defs>
       <path id="DejaVuSans-66" d="M 2375 4863 
L 2375 4384 
L 1825 4384 
Q 1516 4384 1395 4259 
Q 1275 4134 1275 3809 
L 1275 3500 
L 2222 3500 
L 2222 3053 
L 1275 3053 
L 1275 0 
L 697 0 
L 697 3053 
L 147 3053 
L 147 3500 
L 697 3500 
L 697 3744 
Q 697 4328 969 4595 
Q 1241 4863 1831 4863 
L 2375 4863 
z
" transform="scale(0.015625)"/>
       <path id="DejaVuSans-6b" d="M 581 4863 
L 1159 4863 
L 1159 1991 
L 2875 3500 
L 3609 3500 
L 1753 1863 
L 3688 0 
L 2938 0 
L 1159 1709 
L 1159 0 
L 581 0 
L 581 4863 
z
" transform="scale(0.015625)"/>
      </defs>
      <use xlink:href="#DejaVuSans-66"/>
      <use xlink:href="#DejaVuSans-6f" transform="translate(35.205078 0)"/>
      <use xlink:href="#DejaVuSans-72" transform="translate(96.386719 0)"/>
      <use xlink:href="#DejaVuSans-6b" transform="translate(137.5 0)"/>
     </g>
    </g>
   </g>
  </g>
 </g>
 <defs>
  <clipPath id="pff26369b7a">
   <rect x="108" y="43.2" width="669.6" height="277.2"/>
  </clipPath>
 </defs>
</svg>
